# xmcd
#
# Track frame offsets: 
#        150
#        30605
#        57410
#        76093
#        100230
#        117884
#        143110
#        164715
#
# Disc length: 2535 seconds
#
# Revision: 0
# Processed by: cddbd v1.5.2PL0 Copyright (c) Steve Scherf et al.
# Submitted via: ExactAudioCopy v0.99pb5
#
DISCID=6509e508
DTITLE=Diane Dufresne - Magie Rose
DYEAR=1984
DGENRE=Chanson Francaise
TTITLE0=Oxygene
TTITLE1=Les hauts et les bas d'une hotesse de l'air
TTITLE2=La vie en rose
TTITLE3=Champagne
TTITLE4=Hollywood freak
TTITLE5=Le parc Belmont
TTITLE6=J'ai douze ans
TTITLE7=Je voulais te dire que je t'attends
EXTD=
EXTT0=
EXTT1=
EXTT2=
EXTT3=
EXTT4=
EXTT5=
EXTT6=
EXTT7=
PLAYORDER=
